{"asset":{"version":"2.0","generator":"pv2gltf","copyright":""},"samplers":[{"magFilter":9729,"minFilter":9986,"wrapS":10497,"wrapT":10497}],"materials":[{"name":"material_0","pbrMetallicRoughness":{"baseColorFactor":[0.800000011920929,0.800000011920929,0.800000011920929,1.0],"metallicFactor":0.5,"roughnessFactor":0.5},"doubleSided":true}],"buffers":[{"uri":"guitarra.bin","byteLength":53376},{"uri":"guitarra_2.bin","byteLength":53376},{"uri":"guitarra_3.bin","byteLength":53376},{"uri":"guitarra_4.bin","byteLength":53376},{"uri":"guitarra_5.bin","byteLength":53376},{"uri":"guitarra_6.bin","byteLength":53376},{"uri":"guitarra_7.bin","byteLength":289704},{"uri":"guitarra_8.bin","byteLength":289704},{"uri":"guitarra_9.bin","byteLength":289704},{"uri":"guitarra_10.bin","byteLength":289704},{"uri":"guitarra_11.bin","byteLength":289704},{"uri":"guitarra_12.bin","byteLength":289704},{"uri":"guitarra_13.bin","byteLength":208320},{"uri":"guitarra_14.bin","byteLength":56496},{"uri":"guitarra_15.bin","byteLength":17160},{"uri":"guitarra_16.bin","byteLength":632704},{"uri":"guitarra_17.bin","byteLength":131424},{"uri":"guitarra_18.bin","byteLength":131424},{"uri":"guitarra_19.bin","byteLength":131424}],"bufferViews":[{"buffer":0,"byteOffset":0,"byteLength":47616,"byteStride":12,"target":34962},{"buffer":0,"byteOffset":47616,"byteLength":5760,"target":34963},{"buffer":1,"byteOffset":0,"byteLength":47616,"byteStride":12,"target":34962},{"buffer":1,"byteOffset":47616,"byteLength":5760,"target":34963},{"buffer":2,"byteOffset":0,"byteLength":47616,"byteStride":12,"target":34962},{"buffer":2,"byteOffset":47616,"byteLength":5760,"target":34963},{"buffer":3,"byteOffset":0,"byteLength":47616,"byteStride":12,"target":34962},{"buffer":3,"byteOffset":47616,"byteLength":5760,"target":34963},{"buffer":4,"byteOffset":0,"byteLength":47616,"byteStride":12,"target":34962},{"buffer":4,"byteOffset":47616,"byteLength":5760,"target":34963},{"buffer":5,"byteOffset":0,"byteLength":47616,"byteStride":12,"target":34962},{"buffer":5,"byteOffset":47616,"byteLength":5760,"target":34963},{"buffer":6,"byteOffset":0,"byteLength":243048,"byteStride":12,"target":34962},{"buffer":6,"byteOffset":243048,"byteLength":46656,"target":34963},{"buffer":7,"byteOffset":0,"byteLength":243048,"byteStride":12,"target":34962},{"buffer":7,"byteOffset":243048,"byteLength":46656,"target":34963},{"buffer":8,"byteOffset":0,"byteLength":243048,"byteStride":12,"target":34962},{"buffer":8,"byteOffset":243048,"byteLength":46656,"target":34963},{"buffer":9,"byteOffset":0,"byteLength":243048,"byteStride":12,"target":34962},{"buffer":9,"byteOffset":243048,"byteLength":46656,"target":34963},{"buffer":10,"byteOffset":0,"byteLength":243048,"byteStride":12,"target":34962},{"buffer":10,"byteOffset":243048,"byteLength":46656,"target":34963},{"buffer":11,"byteOffset":0,"byteLength":243048,"byteStride":12,"target":34962},{"buffer":11,"byteOffset":243048,"byteLength":46656,"target":34963},{"buffer":12,"byteOffset":0,"byteLength":139200,"byteStride":12,"target":34962},{"buffer":12,"byteOffset":139200,"byteLength":69120,"target":34963},{"buffer":13,"byteOffset":0,"byteLength":37680,"byteStride":12,"target":34962},{"buffer":13,"byteOffset":37680,"byteLength":18816,"target":34963},{"buffer":14,"byteOffset":0,"byteLength":11784,"byteStride":12,"target":34962},{"buffer":14,"byteOffset":11784,"byteLength":5376,"target":34963},{"buffer":15,"byteOffset":0,"byteLength":355584,"byteStride":12,"target":34962},{"buffer":15,"byteOffset":355584,"byteLength":118528,"byteStride":8,"target":34962},{"buffer":15,"byteOffset":474112,"byteLength":158592,"target":34963},{"buffer":16,"byteOffset":0,"byteLength":87648,"byteStride":12,"target":34962},{"buffer":16,"byteOffset":87648,"byteLength":43776,"target":34963},{"buffer":17,"byteOffset":0,"byteLength":87648,"byteStride":12,"target":34962},{"buffer":17,"byteOffset":87648,"byteLength":43776,"target":34963},{"buffer":18,"byteOffset":0,"byteLength":87648,"byteStride":12,"target":34962},{"buffer":18,"byteOffset":87648,"byteLength":43776,"target":34963}],"accessors":[{"bufferView":0,"byteOffset":0,"componentType":5126,"count":1984,"type":"VEC3","min":[-0.009999997913837433,-0.01000000350177288,-0.009999999776482582],"max":[0.010000002570450306,0.009999999776482582,0.009999999776482582]},{"bufferView":0,"byteOffset":23808,"componentType":5126,"count":1984,"type":"VEC3"},{"bufferView":1,"byteOffset":0,"componentType":5123,"count":2880,"type":"SCALAR"},{"bufferView":2,"byteOffset":0,"componentType":5126,"count":1984,"type":"VEC3","min":[-0.009999997913837433,-0.01000000350177288,-0.009999999776482582],"max":[0.010000002570450306,0.009999999776482582,0.009999999776482582]},{"bufferView":2,"byteOffset":23808,"componentType":5126,"count":1984,"type":"VEC3"},{"bufferView":3,"byteOffset":0,"componentType":5123,"count":2880,"type":"SCALAR"},{"bufferView":4,"byteOffset":0,"componentType":5126,"count":1984,"type":"VEC3","min":[-0.009999997913837433,-0.01000000350177288,-0.009999999776482582],"max":[0.010000002570450306,0.009999999776482582,0.009999999776482582]},{"bufferView":4,"byteOffset":23808,"componentType":5126,"count":1984,"type":"VEC3"},{"bufferView":5,"byteOffset":0,"componentType":5123,"count":2880,"type":"SCALAR"},{"bufferView":6,"byteOffset":0,"componentType":5126,"count":1984,"type":"VEC3","min":[-0.009999997913837433,-0.01000000350177288,-0.009999999776482582],"max":[0.010000002570450306,0.009999999776482582,0.009999999776482582]},{"bufferView":6,"byteOffset":23808,"componentType":5126,"count":1984,"type":"VEC3"},{"bufferView":7,"byteOffset":0,"componentType":5123,"count":2880,"type":"SCALAR"},{"bufferView":8,"byteOffset":0,"componentType":5126,"count":1984,"type":"VEC3","min":[-0.009999997913837433,-0.01000000350177288,-0.009999999776482582],"max":[0.010000002570450306,0.009999999776482582,0.009999999776482582]},{"bufferView":8,"byteOffset":23808,"componentType":5126,"count":1984,"type":"VEC3"},{"bufferView":9,"byteOffset":0,"componentType":5123,"count":2880,"type":"SCALAR"},{"bufferView":10,"byteOffset":0,"componentType":5126,"count":1984,"type":"VEC3","min":[-0.009999997913837433,-0.01000000350177288,-0.009999999776482582],"max":[0.010000002570450306,0.009999999776482582,0.009999999776482582]},{"bufferView":10,"byteOffset":23808,"componentType":5126,"count":1984,"type":"VEC3"},{"bufferView":11,"byteOffset":0,"componentType":5123,"count":2880,"type":"SCALAR"},{"bufferView":12,"byteOffset":0,"componentType":5126,"count":10127,"type":"VEC3","min":[-0.014456724748015404,-0.014439510181546212,-0.021342890337109567],"max":[0.015033217146992684,0.015056191012263298,0.00889382790774107]},{"bufferView":12,"byteOffset":121524,"componentType":5126,"count":10127,"type":"VEC3"},{"bufferView":13,"byteOffset":0,"componentType":5123,"count":23328,"type":"SCALAR"},{"bufferView":14,"byteOffset":0,"componentType":5126,"count":10127,"type":"VEC3","min":[-0.014456724748015404,-0.014439510181546212,-0.021342890337109567],"max":[0.015033217146992684,0.015056191012263298,0.00889382790774107]},{"bufferView":14,"byteOffset":121524,"componentType":5126,"count":10127,"type":"VEC3"},{"bufferView":15,"byteOffset":0,"componentType":5123,"count":23328,"type":"SCALAR"},{"bufferView":16,"byteOffset":0,"componentType":5126,"count":10127,"type":"VEC3","min":[-0.014456724748015404,-0.014439510181546212,-0.021342890337109567],"max":[0.015033217146992684,0.015056191012263298,0.00889382790774107]},{"bufferView":16,"byteOffset":121524,"componentType":5126,"count":10127,"type":"VEC3"},{"bufferView":17,"byteOffset":0,"componentType":5123,"count":23328,"type":"SCALAR"},{"bufferView":18,"byteOffset":0,"componentType":5126,"count":10127,"type":"VEC3","min":[-0.014456724748015404,-0.014439510181546212,-0.021342890337109567],"max":[0.015033217146992684,0.015056191012263298,0.00889382790774107]},{"bufferView":18,"byteOffset":121524,"componentType":5126,"count":10127,"type":"VEC3"},{"bufferView":19,"byteOffset":0,"componentType":5123,"count":23328,"type":"SCALAR"},{"bufferView":20,"byteOffset":0,"componentType":5126,"count":10127,"type":"VEC3","min":[-0.014456724748015404,-0.014439510181546212,-0.021342890337109567],"max":[0.015033217146992684,0.015056191012263298,0.00889382790774107]},{"bufferView":20,"byteOffset":121524,"componentType":5126,"count":10127,"type":"VEC3"},{"bufferView":21,"byteOffset":0,"componentType":5123,"count":23328,"type":"SCALAR"},{"bufferView":22,"byteOffset":0,"componentType":5126,"count":10127,"type":"VEC3","min":[-0.014456724748015404,-0.014439510181546212,-0.021342890337109567],"max":[0.015033217146992684,0.015056191012263298,0.00889382790774107]},{"bufferView":22,"byteOffset":121524,"componentType":5126,"count":10127,"type":"VEC3"},{"bufferView":23,"byteOffset":0,"componentType":5123,"count":23328,"type":"SCALAR"},{"bufferView":24,"byteOffset":0,"componentType":5126,"count":5800,"type":"VEC3","min":[-0.009168121963739396,-0.014728641137480736,-0.0023625227622687818],"max":[0.009168121963739396,0.13488754630088807,0.004567946307361126]},{"bufferView":24,"byteOffset":69600,"componentType":5126,"count":5800,"type":"VEC3"},{"bufferView":25,"byteOffset":0,"componentType":5123,"count":34560,"type":"SCALAR"},{"bufferView":26,"byteOffset":0,"componentType":5126,"count":1570,"type":"VEC3","min":[-0.009299135766923428,-0.023390984162688257,-0.005945978686213493],"max":[0.009299135766923428,0.14292582869529725,0.002046627225354314]},{"bufferView":26,"byteOffset":18840,"componentType":5126,"count":1570,"type":"VEC3"},{"bufferView":27,"byteOffset":0,"componentType":5123,"count":9408,"type":"SCALAR"},{"bufferView":28,"byteOffset":0,"componentType":5126,"count":491,"type":"VEC3","min":[-0.019656552001833917,-0.00462052458897233,-0.0002775039756670594],"max":[0.019656552001833917,0.00470721535384655,0.003340090624988079]},{"bufferView":28,"byteOffset":5892,"componentType":5126,"count":491,"type":"VEC3"},{"bufferView":29,"byteOffset":0,"componentType":5123,"count":2688,"type":"SCALAR"},{"bufferView":30,"byteOffset":0,"componentType":5126,"count":14816,"type":"VEC3","min":[-0.06001794710755348,-0.1511789709329605,-0.03575799986720085],"max":[0.06001794710755348,0.1930578052997589,0.00011545178858796135]},{"bufferView":30,"byteOffset":177792,"componentType":5126,"count":14816,"type":"VEC3"},{"bufferView":31,"byteOffset":0,"componentType":5126,"count":14816,"type":"VEC2"},{"bufferView":32,"byteOffset":0,"componentType":5123,"count":79296,"type":"SCALAR"},{"bufferView":33,"byteOffset":0,"componentType":5126,"count":3652,"type":"VEC3","min":[-0.13937436044216157,-0.01000433973968029,-0.0018267559353262187],"max":[0.042692769318819049,0.010004265233874321,0.0018267746781930328]},{"bufferView":33,"byteOffset":43824,"componentType":5126,"count":3652,"type":"VEC3"},{"bufferView":34,"byteOffset":0,"componentType":5123,"count":21888,"type":"SCALAR"},{"bufferView":35,"byteOffset":0,"componentType":5126,"count":3652,"type":"VEC3","min":[-0.14133432507514954,-0.010004265233874321,-0.0018267559353262187],"max":[0.042692769318819049,0.010004265233874321,0.0018267746781930328]},{"bufferView":35,"byteOffset":43824,"componentType":5126,"count":3652,"type":"VEC3"},{"bufferView":36,"byteOffset":0,"componentType":5123,"count":21888,"type":"SCALAR"},{"bufferView":37,"byteOffset":0,"componentType":5126,"count":3652,"type":"VEC3","min":[-0.1474590003490448,-0.01000433973968029,-0.0018267559353262187],"max":[0.042692769318819049,0.010004265233874321,0.0018267558189108968]},{"bufferView":37,"byteOffset":43824,"componentType":5126,"count":3652,"type":"VEC3"},{"bufferView":38,"byteOffset":0,"componentType":5123,"count":21888,"type":"SCALAR"}],"meshes":[{"name":"Sphere.005","primitives":[{"attributes":{"NORMAL":1,"POSITION":0},"indices":2,"mode":4,"material":0}]},{"name":"Sphere.004","primitives":[{"attributes":{"NORMAL":4,"POSITION":3},"indices":5,"mode":4,"material":0}]},{"name":"Sphere.003","primitives":[{"attributes":{"NORMAL":7,"POSITION":6},"indices":8,"mode":4,"material":0}]},{"name":"Sphere.002","primitives":[{"attributes":{"NORMAL":10,"POSITION":9},"indices":11,"mode":4,"material":0}]},{"name":"Sphere.001","primitives":[{"attributes":{"NORMAL":13,"POSITION":12},"indices":14,"mode":4,"material":0}]},{"name":"Sphere","primitives":[{"attributes":{"NORMAL":16,"POSITION":15},"indices":17,"mode":4,"material":0}]},{"name":"Circle.005","primitives":[{"attributes":{"NORMAL":19,"POSITION":18},"indices":20,"mode":4,"material":0}]},{"name":"Circle.004","primitives":[{"attributes":{"NORMAL":22,"POSITION":21},"indices":23,"mode":4,"material":0}]},{"name":"Circle.003","primitives":[{"attributes":{"NORMAL":25,"POSITION":24},"indices":26,"mode":4,"material":0}]},{"name":"Circle.002","primitives":[{"attributes":{"NORMAL":28,"POSITION":27},"indices":29,"mode":4,"material":0}]},{"name":"Circle.001","primitives":[{"attributes":{"NORMAL":31,"POSITION":30},"indices":32,"mode":4,"material":0}]},{"name":"Circle","primitives":[{"attributes":{"NORMAL":34,"POSITION":33},"indices":35,"mode":4,"material":0}]},{"name":"Plane.003","primitives":[{"attributes":{"NORMAL":37,"POSITION":36},"indices":38,"mode":4,"material":0}]},{"name":"Plane.002","primitives":[{"attributes":{"NORMAL":40,"POSITION":39},"indices":41,"mode":4,"material":0}]},{"name":"Plane.001","primitives":[{"attributes":{"NORMAL":43,"POSITION":42},"indices":44,"mode":4,"material":0}]},{"name":"Plane","primitives":[{"attributes":{"NORMAL":46,"POSITION":45,"TEXCOORD_0":47},"indices":48,"mode":4,"material":0}]},{"name":"Cube","primitives":[{"attributes":{"NORMAL":50,"POSITION":49},"indices":51,"mode":4,"material":0}]},{"name":"Cube.001","primitives":[{"attributes":{"NORMAL":53,"POSITION":52},"indices":54,"mode":4,"material":0}]},{"name":"Cube.002","primitives":[{"attributes":{"NORMAL":56,"POSITION":55},"indices":57,"mode":4,"material":0}]}],"nodes":[{"name":"Sphere.005","mesh":0,"matrix":[3.6809425354003908,0.0,0.0,0.0,0.0,-5.997016592616603e-7,-3.6809425354003428,0.0,0.0,3.6809425354003428,-5.997016592616603e-7,0.0,0.4868625259399414,2.503278045654297,1.8983547973632813,1.0],"extras":{"id":"37"}},{"name":"Sphere.004","mesh":1,"matrix":[3.6809425354003908,0.0,0.0,0.0,0.0,-5.997016592616603e-7,-3.6809425354003428,0.0,0.0,3.6809425354003428,-5.997016592616603e-7,0.0,0.576556282043457,2.4778286743164066,1.8983547973632813,1.0],"extras":{"id":"38"}},{"name":"Sphere.003","mesh":2,"matrix":[3.6809425354003908,0.0,0.0,0.0,0.0,-5.997016592616603e-7,-3.6809425354003428,0.0,0.0,3.6809425354003428,-5.997016592616603e-7,0.0,0.6511420440673829,2.4621006774902347,1.8983547973632813,1.0],"extras":{"id":"39"}},{"name":"Sphere.002","mesh":3,"matrix":[3.6809425354003908,0.0,0.0,0.0,0.0,-5.997016592616603e-7,-3.6809425354003428,0.0,0.0,3.6809425354003428,-5.997016592616603e-7,0.0,0.7295407104492188,2.4649607849121097,1.8983547973632813,1.0],"extras":{"id":"40"}},{"name":"Sphere.001","mesh":4,"matrix":[3.6809425354003908,0.0,0.0,0.0,0.0,-5.997016592616603e-7,-3.6809425354003428,0.0,0.0,3.6809425354003428,-5.997016592616603e-7,0.0,0.8074625396728515,2.4792578125,1.8983547973632813,1.0],"extras":{"id":"41"}},{"name":"Sphere","mesh":5,"matrix":[3.6809425354003908,0.0,0.0,0.0,0.0,-5.997016592616603e-7,-3.6809425354003428,0.0,0.0,3.6809425354003428,-5.997016592616603e-7,0.0,0.8900550842285157,2.492411346435547,1.8983547973632813,1.0],"extras":{"id":"42"}},{"name":"Circle.005","mesh":6,"matrix":[6.36980676651001,0.0,0.0,0.0,0.0,-6.0327932270371529,2.0444667085798615,0.0,0.0,-2.0444667085798615,-6.0327932270371529,0.0,0.5070326232910156,11.068201904296876,1.4744915771484375,1.0],"extras":{"id":"43"}},{"name":"Circle.004","mesh":7,"matrix":[5.459898948669434,0.0,0.0,0.0,0.0,-5.171028104919014,1.7524198360412842,0.0,0.0,-1.7524198360412842,-5.171028104919014,0.0,0.5040679550170899,11.46390625,1.3399188232421875,1.0],"extras":{"id":"44"}},{"name":"Circle.003","mesh":8,"matrix":[5.868589401245117,0.0,0.0,0.0,0.0,-5.5580960610726939,1.8835955306780484,0.0,0.0,-1.8835955306780484,-5.5580960610726939,0.0,0.48751483917236329,11.862825927734376,1.2092430877685548,1.0],"extras":{"id":"45"}},{"name":"Circle.002","mesh":9,"matrix":[6.36980676651001,0.0,0.0,0.0,0.0,-6.0327932270371529,2.0444667085798615,0.0,0.0,-2.0444667085798615,-6.0327932270371529,0.0,0.9013436126708985,11.06820068359375,1.4703306579589844,1.0],"extras":{"id":"46"}},{"name":"Circle.001","mesh":10,"matrix":[5.459898948669434,0.0,0.0,0.0,0.0,-5.171028104919014,1.7524198360412842,0.0,0.0,-1.7524198360412842,-5.171028104919014,0.0,0.9013436126708985,11.466844482421875,1.3395257568359376,1.0],"extras":{"id":"47"}},{"name":"Circle","mesh":11,"matrix":[5.868589401245117,0.0,0.0,0.0,0.0,-5.5580960610726939,1.8835955306780484,0.0,0.0,-1.8835955306780484,-5.5580960610726939,0.0,0.9013436126708985,11.86486572265625,1.1955159759521486,1.0],"extras":{"id":"48"}},{"name":"Plane.003","mesh":12,"matrix":[34.711029052734378,0.0,0.0,0.0,0.0,34.71102905273435,0.0000015172671454379656,0.0,0.0,-0.0000015172671454379656,34.71102905273435,0.0,0.6911145782470703,5.623082885742187,1.7215182495117188,1.0],"extras":{"id":"49"}},{"name":"Plane.002","mesh":13,"matrix":[34.711029052734378,0.0,0.0,0.0,0.0,34.71102905273435,0.0000015172671454379656,0.0,0.0,-0.0000015172671454379656,34.71102905273435,0.0,0.6911145782470703,5.623082885742187,1.756702880859375,1.0],"extras":{"id":"50"}},{"name":"Plane.001","mesh":14,"matrix":[44.629241943359378,0.0,0.0,0.0,0.0,44.62924194335934,0.000001950806123528952,0.0,0.0,-0.000001950806123528952,44.62924194335934,0.0,0.694389419555664,2.5444900512695316,1.7387480163574219,1.0],"extras":{"id":"51"}},{"name":"Plane","mesh":15,"matrix":[34.711029052734378,0.0,0.0,0.0,0.0,34.71102905273435,0.0000015172671454379656,0.0,0.0,-0.0000015172671454379656,34.71102905273435,0.0,0.6911145782470703,5.623082885742187,1.756702880859375,1.0],"extras":{"id":"52"}},{"name":"Cube","mesh":16,"matrix":[6.454131126403809,4.937781396264691e-16,-8.775262804938936e-17,0.0,-4.93778149909644e-16,6.0589285513104029,-2.223779082312387,0.0,-8.775257018663559e-17,2.223779082312387,6.0589285513104029,0.0,1.0031124114990236,11.041636962890625,1.323813934326172,1.0],"extras":{"id":"53"}},{"name":"Cube.001","mesh":17,"matrix":[6.454131126403809,4.937781396264691e-16,-8.775262804938936e-17,0.0,-4.93778149909644e-16,6.0589285513104029,-2.223779082312387,0.0,-8.775257018663559e-17,2.223779082312387,6.0589285513104029,0.0,1.0094373321533204,11.430137939453126,1.2085807037353516,1.0],"extras":{"id":"54"}},{"name":"Cube.002","mesh":18,"matrix":[6.454131126403809,4.937781396264691e-16,-8.775262804938936e-17,0.0,-4.93778149909644e-16,6.0589285513104029,-2.223779082312387,0.0,-8.775257018663559e-17,2.223779082312387,6.0589285513104029,0.0,1.029202117919922,11.840262451171876,1.074661407470703,1.0],"extras":{"id":"55"}},{"name":"guitarra","children":[0,1,2,3,4,5,6,7,8,9,10,11,12,13,14,15,16,17,18]}],"scenes":[{"nodes":[19]}],"scene":0}